<svg version="1.1" xmlns="http://www.w3.org/2000/svg" xmlns:xlink="http://www.w3.org/1999/xlink" width="796.5908203125" height="620"><defs/><g><text fill="#eeeeee" stroke="none" font-family="Arial" font-size="24px" font-style="normal" font-weight="normal" text-decoration="none" x="0" y="0">UNREGISTERED</text><text fill="#eeeeee" stroke="none" font-family="Arial" font-size="24px" font-style="normal" font-weight="normal" text-decoration="none" x="0" y="30">UNREGISTERED</text><text fill="#eeeeee" stroke="none" font-family="Arial" font-size="24px" font-style="normal" font-weight="normal" text-decoration="none" x="0" y="60">UNREGISTERED</text><text fill="#eeeeee" stroke="none" font-family="Arial" font-size="24px" font-style="normal" font-weight="normal" text-decoration="none" x="0" y="90">UNREGISTERED</text><text fill="#eeeeee" stroke="none" font-family="Arial" font-size="24px" font-style="normal" font-weight="normal" text-decoration="none" x="0" y="120">UNREGISTERED</text><text fill="#eeeeee" stroke="none" font-family="Arial" font-size="24px" font-style="normal" font-weight="normal" text-decoration="none" x="0" y="150">UNREGISTERED</text><text fill="#eeeeee" stroke="none" font-family="Arial" font-size="24px" font-style="normal" font-weight="normal" text-decoration="none" x="0" y="180">UNREGISTERED</text><text fill="#eeeeee" stroke="none" font-family="Arial" font-size="24px" font-style="normal" font-weight="normal" text-decoration="none" x="0" y="210">UNREGISTERED</text><text fill="#eeeeee" stroke="none" font-family="Arial" font-size="24px" font-style="normal" font-weight="normal" text-decoration="none" x="0" y="240">UNREGISTERED</text><text fill="#eeeeee" stroke="none" font-family="Arial" font-size="24px" font-style="normal" font-weight="normal" text-decoration="none" x="0" y="270">UNREGISTERED</text><text fill="#eeeeee" stroke="none" font-family="Arial" font-size="24px" font-style="normal" font-weight="normal" text-decoration="none" x="0" y="300">UNREGISTERED</text><text fill="#eeeeee" stroke="none" font-family="Arial" font-size="24px" font-style="normal" font-weight="normal" text-decoration="none" x="0" y="330">UNREGISTERED</text><text fill="#eeeeee" stroke="none" font-family="Arial" font-size="24px" font-style="normal" font-weight="normal" text-decoration="none" x="0" y="360">UNREGISTERED</text><text fill="#eeeeee" stroke="none" font-family="Arial" font-size="24px" font-style="normal" font-weight="normal" text-decoration="none" x="0" y="390">UNREGISTERED</text><text fill="#eeeeee" stroke="none" font-family="Arial" font-size="24px" font-style="normal" font-weight="normal" text-decoration="none" x="0" y="420">UNREGISTERED</text><text fill="#eeeeee" stroke="none" font-family="Arial" font-size="24px" font-style="normal" font-weight="normal" text-decoration="none" x="0" y="450">UNREGISTERED</text><text fill="#eeeeee" stroke="none" font-family="Arial" font-size="24px" font-style="normal" font-weight="normal" text-decoration="none" x="0" y="480">UNREGISTERED</text><text fill="#eeeeee" stroke="none" font-family="Arial" font-size="24px" font-style="normal" font-weight="normal" text-decoration="none" x="0" y="510">UNREGISTERED</text><text fill="#eeeeee" stroke="none" font-family="Arial" font-size="24px" font-style="normal" font-weight="normal" text-decoration="none" x="0" y="540">UNREGISTERED</text><text fill="#eeeeee" stroke="none" font-family="Arial" font-size="24px" font-style="normal" font-weight="normal" text-decoration="none" x="0" y="570">UNREGISTERED</text><text fill="#eeeeee" stroke="none" font-family="Arial" font-size="24px" font-style="normal" font-weight="normal" text-decoration="none" x="0" y="600">UNREGISTERED</text><text fill="#eeeeee" stroke="none" font-family="Arial" font-size="24px" font-style="normal" font-weight="normal" text-decoration="none" x="200" y="0">UNREGISTERED</text><text fill="#eeeeee" stroke="none" font-family="Arial" font-size="24px" font-style="normal" font-weight="normal" text-decoration="none" x="200" y="30">UNREGISTERED</text><text fill="#eeeeee" stroke="none" font-family="Arial" font-size="24px" font-style="normal" font-weight="normal" text-decoration="none" x="200" y="60">UNREGISTERED</text><text fill="#eeeeee" stroke="none" font-family="Arial" font-size="24px" font-style="normal" font-weight="normal" text-decoration="none" x="200" y="90">UNREGISTERED</text><text fill="#eeeeee" stroke="none" font-family="Arial" font-size="24px" font-style="normal" font-weight="normal" text-decoration="none" x="200" y="120">UNREGISTERED</text><text fill="#eeeeee" stroke="none" font-family="Arial" font-size="24px" font-style="normal" font-weight="normal" text-decoration="none" x="200" y="150">UNREGISTERED</text><text fill="#eeeeee" stroke="none" font-family="Arial" font-size="24px" font-style="normal" font-weight="normal" text-decoration="none" x="200" y="180">UNREGISTERED</text><text fill="#eeeeee" stroke="none" font-family="Arial" font-size="24px" font-style="normal" font-weight="normal" text-decoration="none" x="200" y="210">UNREGISTERED</text><text fill="#eeeeee" stroke="none" font-family="Arial" font-size="24px" font-style="normal" font-weight="normal" text-decoration="none" x="200" y="240">UNREGISTERED</text><text fill="#eeeeee" stroke="none" font-family="Arial" font-size="24px" font-style="normal" font-weight="normal" text-decoration="none" x="200" y="270">UNREGISTERED</text><text fill="#eeeeee" stroke="none" font-family="Arial" font-size="24px" font-style="normal" font-weight="normal" text-decoration="none" x="200" y="300">UNREGISTERED</text><text fill="#eeeeee" stroke="none" font-family="Arial" font-size="24px" font-style="normal" font-weight="normal" text-decoration="none" x="200" y="330">UNREGISTERED</text><text fill="#eeeeee" stroke="none" font-family="Arial" font-size="24px" font-style="normal" font-weight="normal" text-decoration="none" x="200" y="360">UNREGISTERED</text><text fill="#eeeeee" stroke="none" font-family="Arial" font-size="24px" font-style="normal" font-weight="normal" text-decoration="none" x="200" y="390">UNREGISTERED</text><text fill="#eeeeee" stroke="none" font-family="Arial" font-size="24px" font-style="normal" font-weight="normal" text-decoration="none" x="200" y="420">UNREGISTERED</text><text fill="#eeeeee" stroke="none" font-family="Arial" font-size="24px" font-style="normal" font-weight="normal" text-decoration="none" x="200" y="450">UNREGISTERED</text><text fill="#eeeeee" stroke="none" font-family="Arial" font-size="24px" font-style="normal" font-weight="normal" text-decoration="none" x="200" y="480">UNREGISTERED</text><text fill="#eeeeee" stroke="none" font-family="Arial" font-size="24px" font-style="normal" font-weight="normal" text-decoration="none" x="200" y="510">UNREGISTERED</text><text fill="#eeeeee" stroke="none" font-family="Arial" font-size="24px" font-style="normal" font-weight="normal" text-decoration="none" x="200" y="540">UNREGISTERED</text><text fill="#eeeeee" stroke="none" font-family="Arial" font-size="24px" font-style="normal" font-weight="normal" text-decoration="none" x="200" y="570">UNREGISTERED</text><text fill="#eeeeee" stroke="none" font-family="Arial" font-size="24px" font-style="normal" font-weight="normal" text-decoration="none" x="200" y="600">UNREGISTERED</text><text fill="#eeeeee" stroke="none" font-family="Arial" font-size="24px" font-style="normal" font-weight="normal" text-decoration="none" x="400" y="0">UNREGISTERED</text><text fill="#eeeeee" stroke="none" font-family="Arial" font-size="24px" font-style="normal" font-weight="normal" text-decoration="none" x="400" y="30">UNREGISTERED</text><text fill="#eeeeee" stroke="none" font-family="Arial" font-size="24px" font-style="normal" font-weight="normal" text-decoration="none" x="400" y="60">UNREGISTERED</text><text fill="#eeeeee" stroke="none" font-family="Arial" font-size="24px" font-style="normal" font-weight="normal" text-decoration="none" x="400" y="90">UNREGISTERED</text><text fill="#eeeeee" stroke="none" font-family="Arial" font-size="24px" font-style="normal" font-weight="normal" text-decoration="none" x="400" y="120">UNREGISTERED</text><text fill="#eeeeee" stroke="none" font-family="Arial" font-size="24px" font-style="normal" font-weight="normal" text-decoration="none" x="400" y="150">UNREGISTERED</text><text fill="#eeeeee" stroke="none" font-family="Arial" font-size="24px" font-style="normal" font-weight="normal" text-decoration="none" x="400" y="180">UNREGISTERED</text><text fill="#eeeeee" stroke="none" font-family="Arial" font-size="24px" font-style="normal" font-weight="normal" text-decoration="none" x="400" y="210">UNREGISTERED</text><text fill="#eeeeee" stroke="none" font-family="Arial" font-size="24px" font-style="normal" font-weight="normal" text-decoration="none" x="400" y="240">UNREGISTERED</text><text fill="#eeeeee" stroke="none" font-family="Arial" font-size="24px" font-style="normal" font-weight="normal" text-decoration="none" x="400" y="270">UNREGISTERED</text><text fill="#eeeeee" stroke="none" font-family="Arial" font-size="24px" font-style="normal" font-weight="normal" text-decoration="none" x="400" y="300">UNREGISTERED</text><text fill="#eeeeee" stroke="none" font-family="Arial" font-size="24px" font-style="normal" font-weight="normal" text-decoration="none" x="400" y="330">UNREGISTERED</text><text fill="#eeeeee" stroke="none" font-family="Arial" font-size="24px" font-style="normal" font-weight="normal" text-decoration="none" x="400" y="360">UNREGISTERED</text><text fill="#eeeeee" stroke="none" font-family="Arial" font-size="24px" font-style="normal" font-weight="normal" text-decoration="none" x="400" y="390">UNREGISTERED</text><text fill="#eeeeee" stroke="none" font-family="Arial" font-size="24px" font-style="normal" font-weight="normal" text-decoration="none" x="400" y="420">UNREGISTERED</text><text fill="#eeeeee" stroke="none" font-family="Arial" font-size="24px" font-style="normal" font-weight="normal" text-decoration="none" x="400" y="450">UNREGISTERED</text><text fill="#eeeeee" stroke="none" font-family="Arial" font-size="24px" font-style="normal" font-weight="normal" text-decoration="none" x="400" y="480">UNREGISTERED</text><text fill="#eeeeee" stroke="none" font-family="Arial" font-size="24px" font-style="normal" font-weight="normal" text-decoration="none" x="400" y="510">UNREGISTERED</text><text fill="#eeeeee" stroke="none" font-family="Arial" font-size="24px" font-style="normal" font-weight="normal" text-decoration="none" x="400" y="540">UNREGISTERED</text><text fill="#eeeeee" stroke="none" font-family="Arial" font-size="24px" font-style="normal" font-weight="normal" text-decoration="none" x="400" y="570">UNREGISTERED</text><text fill="#eeeeee" stroke="none" font-family="Arial" font-size="24px" font-style="normal" font-weight="normal" text-decoration="none" x="400" y="600">UNREGISTERED</text><text fill="#eeeeee" stroke="none" font-family="Arial" font-size="24px" font-style="normal" font-weight="normal" text-decoration="none" x="600" y="0">UNREGISTERED</text><text fill="#eeeeee" stroke="none" font-family="Arial" font-size="24px" font-style="normal" font-weight="normal" text-decoration="none" x="600" y="30">UNREGISTERED</text><text fill="#eeeeee" stroke="none" font-family="Arial" font-size="24px" font-style="normal" font-weight="normal" text-decoration="none" x="600" y="60">UNREGISTERED</text><text fill="#eeeeee" stroke="none" font-family="Arial" font-size="24px" font-style="normal" font-weight="normal" text-decoration="none" x="600" y="90">UNREGISTERED</text><text fill="#eeeeee" stroke="none" font-family="Arial" font-size="24px" font-style="normal" font-weight="normal" text-decoration="none" x="600" y="120">UNREGISTERED</text><text fill="#eeeeee" stroke="none" font-family="Arial" font-size="24px" font-style="normal" font-weight="normal" text-decoration="none" x="600" y="150">UNREGISTERED</text><text fill="#eeeeee" stroke="none" font-family="Arial" font-size="24px" font-style="normal" font-weight="normal" text-decoration="none" x="600" y="180">UNREGISTERED</text><text fill="#eeeeee" stroke="none" font-family="Arial" font-size="24px" font-style="normal" font-weight="normal" text-decoration="none" x="600" y="210">UNREGISTERED</text><text fill="#eeeeee" stroke="none" font-family="Arial" font-size="24px" font-style="normal" font-weight="normal" text-decoration="none" x="600" y="240">UNREGISTERED</text><text fill="#eeeeee" stroke="none" font-family="Arial" font-size="24px" font-style="normal" font-weight="normal" text-decoration="none" x="600" y="270">UNREGISTERED</text><text fill="#eeeeee" stroke="none" font-family="Arial" font-size="24px" font-style="normal" font-weight="normal" text-decoration="none" x="600" y="300">UNREGISTERED</text><text fill="#eeeeee" stroke="none" font-family="Arial" font-size="24px" font-style="normal" font-weight="normal" text-decoration="none" x="600" y="330">UNREGISTERED</text><text fill="#eeeeee" stroke="none" font-family="Arial" font-size="24px" font-style="normal" font-weight="normal" text-decoration="none" x="600" y="360">UNREGISTERED</text><text fill="#eeeeee" stroke="none" font-family="Arial" font-size="24px" font-style="normal" font-weight="normal" text-decoration="none" x="600" y="390">UNREGISTERED</text><text fill="#eeeeee" stroke="none" font-family="Arial" font-size="24px" font-style="normal" font-weight="normal" text-decoration="none" x="600" y="420">UNREGISTERED</text><text fill="#eeeeee" stroke="none" font-family="Arial" font-size="24px" font-style="normal" font-weight="normal" text-decoration="none" x="600" y="450">UNREGISTERED</text><text fill="#eeeeee" stroke="none" font-family="Arial" font-size="24px" font-style="normal" font-weight="normal" text-decoration="none" x="600" y="480">UNREGISTERED</text><text fill="#eeeeee" stroke="none" font-family="Arial" font-size="24px" font-style="normal" font-weight="normal" text-decoration="none" x="600" y="510">UNREGISTERED</text><text fill="#eeeeee" stroke="none" font-family="Arial" font-size="24px" font-style="normal" font-weight="normal" text-decoration="none" x="600" y="540">UNREGISTERED</text><text fill="#eeeeee" stroke="none" font-family="Arial" font-size="24px" font-style="normal" font-weight="normal" text-decoration="none" x="600" y="570">UNREGISTERED</text><text fill="#eeeeee" stroke="none" font-family="Arial" font-size="24px" font-style="normal" font-weight="normal" text-decoration="none" x="600" y="600">UNREGISTERED</text><g transform="translate(-38,-54) scale(1,1)"><rect fill="#C0C0C0" stroke="none" x="335" y="71" width="304" height="600" opacity="0.2"/></g><g transform="translate(-38,-54) scale(1,1)"><rect fill="#ffffff" stroke="none" x="328" y="64" width="304" height="600"/></g><g transform="translate(-38,-54) scale(1,1)"><path fill="none" stroke="#000000" d="M 328 64 L 632 64 L 632 664 L 328 664 L 328 64 Z Z" stroke-miterlimit="10"/></g><g transform="translate(-38,-54) scale(1,1)"><g><path fill="none" stroke="none"/><text fill="#000000" stroke="none" font-family="Arial" font-size="13px" font-style="normal" font-weight="bold" text-decoration="none" x="392.224609375" y="82">UAlbany Enroll Class Helper</text></g></g><g transform="translate(-38,-54) scale(1,1)"><path fill="#ffffff" stroke="none" d="M 157.45891086647728 321.68 C 157.45891086647728 316.886167936 161.34475319142274 313 166.13818359375 313 C 170.93161399607726 313 174.81745632102272 316.886167936 174.81745632102272 321.68 C 174.81745632102272 326.473832064 170.93161399607726 330.36 166.13818359375 330.36 C 161.34475319142274 330.36 157.45891086647728 326.473832064 157.45891086647728 321.68 Z"/></g><g transform="translate(-38,-54) scale(1,1)"><path fill="none" stroke="#000000" d="M 157.45891086647728 321.68 C 157.45891086647728 316.886167936 161.34475319142274 313 166.13818359375 313 C 170.93161399607726 313 174.81745632102272 316.886167936 174.81745632102272 321.68 C 174.81745632102272 326.473832064 170.93161399607726 330.36 166.13818359375 330.36 C 161.34475319142274 330.36 157.45891086647728 326.473832064 157.45891086647728 321.68 Z" stroke-miterlimit="10"/></g><g transform="translate(-38,-54) scale(1,1)"><path fill="none" stroke="#000000" d="M 166.13818359375 330.36 L 166.13818359375 347.64" stroke-miterlimit="10"/></g><g transform="translate(-38,-54) scale(1,1)"><path fill="none" stroke="#000000" d="M 156.94836541193183 336.84 L 175.32800177556817 336.84" stroke-miterlimit="10"/></g><g transform="translate(-38,-54) scale(1,1)"><path fill="none" stroke="#000000" d="M 166.13818359375 347.64 L 153.37454723011365 365" stroke-miterlimit="10"/></g><g transform="translate(-38,-54) scale(1,1)"><path fill="none" stroke="#000000" d="M 166.13818359375 347.64 L 178.90181995738635 365" stroke-miterlimit="10"/></g><g transform="translate(-38,-54) scale(1,1)"><g><path fill="none" stroke="none"/><text fill="#000000" stroke="none" font-family="Arial" font-size="13px" font-style="normal" font-weight="bold" text-decoration="none" x="141.947265625" y="384">Student</text></g></g><g transform="translate(-38,-54) scale(1,1)"><path fill="#ffffff" stroke="none" d="M 96.01115696022727 97.68 C 96.01115696022727 92.886167936 99.89699928517273 89 104.6904296875 89 C 109.48386008982727 89 113.36970241477273 92.886167936 113.36970241477273 97.68 C 113.36970241477273 102.473832064 109.48386008982727 106.36 104.6904296875 106.36 C 99.89699928517273 106.36 96.01115696022727 102.473832064 96.01115696022727 97.68 Z"/></g><g transform="translate(-38,-54) scale(1,1)"><path fill="none" stroke="#000000" d="M 96.01115696022727 97.68 C 96.01115696022727 92.886167936 99.89699928517273 89 104.6904296875 89 C 109.48386008982727 89 113.36970241477273 92.886167936 113.36970241477273 97.68 C 113.36970241477273 102.473832064 109.48386008982727 106.36 104.6904296875 106.36 C 99.89699928517273 106.36 96.01115696022727 102.473832064 96.01115696022727 97.68 Z" stroke-miterlimit="10"/></g><g transform="translate(-38,-54) scale(1,1)"><path fill="none" stroke="#000000" d="M 104.6904296875 106.36 L 104.6904296875 123.64" stroke-miterlimit="10"/></g><g transform="translate(-38,-54) scale(1,1)"><path fill="none" stroke="#000000" d="M 95.50061150568182 112.84 L 113.88024786931818 112.84" stroke-miterlimit="10"/></g><g transform="translate(-38,-54) scale(1,1)"><path fill="none" stroke="#000000" d="M 104.6904296875 123.64 L 91.92679332386363 141" stroke-miterlimit="10"/></g><g transform="translate(-38,-54) scale(1,1)"><path fill="none" stroke="#000000" d="M 104.6904296875 123.64 L 117.45406605113637 141" stroke-miterlimit="10"/></g><g transform="translate(-38,-54) scale(1,1)"><g><path fill="none" stroke="none"/><text fill="#000000" stroke="none" font-family="Arial" font-size="13px" font-style="normal" font-weight="bold" text-decoration="none" x="56.299072265625" y="160">Normal Student</text></g></g><g transform="translate(-38,-54) scale(1,1)"><path fill="#ffffff" stroke="none" d="M 91.70817844460227 545.6800000000001 C 91.70817844460227 540.8861679360001 95.59402076954773 537 100.387451171875 537 C 105.18088157420227 537 109.06672389914773 540.8861679360001 109.06672389914773 545.6800000000001 C 109.06672389914773 550.473832064 105.18088157420227 554.36 100.387451171875 554.36 C 95.59402076954773 554.36 91.70817844460227 550.473832064 91.70817844460227 545.6800000000001 Z"/></g><g transform="translate(-38,-54) scale(1,1)"><path fill="none" stroke="#000000" d="M 91.70817844460227 545.6800000000001 C 91.70817844460227 540.8861679360001 95.59402076954773 537 100.387451171875 537 C 105.18088157420227 537 109.06672389914773 540.8861679360001 109.06672389914773 545.6800000000001 C 109.06672389914773 550.473832064 105.18088157420227 554.36 100.387451171875 554.36 C 95.59402076954773 554.36 91.70817844460227 550.473832064 91.70817844460227 545.6800000000001 Z" stroke-miterlimit="10"/></g><g transform="translate(-38,-54) scale(1,1)"><path fill="none" stroke="#000000" d="M 100.387451171875 554.36 L 100.387451171875 571.64" stroke-miterlimit="10"/></g><g transform="translate(-38,-54) scale(1,1)"><path fill="none" stroke="#000000" d="M 91.19763299005682 560.84 L 109.57726935369318 560.84" stroke-miterlimit="10"/></g><g transform="translate(-38,-54) scale(1,1)"><path fill="none" stroke="#000000" d="M 100.387451171875 571.64 L 87.62381480823863 589" stroke-miterlimit="10"/></g><g transform="translate(-38,-54) scale(1,1)"><path fill="none" stroke="#000000" d="M 100.387451171875 571.64 L 113.15108753551137 589" stroke-miterlimit="10"/></g><g transform="translate(-38,-54) scale(1,1)"><g><path fill="none" stroke="none"/><text fill="#000000" stroke="none" font-family="Arial" font-size="13px" font-style="normal" font-weight="bold" text-decoration="none" x="69.322021484375" y="608">Freshman</text></g></g><g transform="translate(-38,-54) scale(1,1)"><path fill="none" stroke="#000000" d="M 115 168 L 155 311" stroke-miterlimit="10"/></g><g transform="translate(-38,-54) scale(1,1)"><path fill="none" stroke="#000000" d="M 148.20846899492338 302.34695968996544 L 155 311 L 156.3162858527776 300.07903889056564" stroke-miterlimit="10"/></g><g transform="translate(-38,-54) scale(1,1)"><path fill="none" stroke="#000000" d="M 112 535 L 154 392" stroke-miterlimit="10"/></g><g transform="translate(-38,-54) scale(1,1)"><path fill="none" stroke="#000000" d="M 155.17504284778934 402.93705967369016 L 154 392 L 147.09721170434835 400.56454982736483" stroke-miterlimit="10"/></g><g transform="translate(-38,-54) scale(1,1)"><path fill="#C0C0C0" stroke="none" d="M 415 128 C 415 118.6111584 443.6537728 111 479 111 C 514.3462272 111 543 118.6111584 543 128 C 543 137.3888416 514.3462272 145 479 145 C 443.6537728 145 415 137.3888416 415 128 Z" opacity="0.2"/></g><g transform="translate(-38,-54) scale(1,1)"><path fill="#ffffff" stroke="none" d="M 408 121 C 408 111.6111584 436.6537728 104 472 104 C 507.3462272 104 536 111.6111584 536 121 C 536 130.3888416 507.3462272 138 472 138 C 436.6537728 138 408 130.3888416 408 121 Z"/></g><g transform="translate(-38,-54) scale(1,1)"><path fill="none" stroke="#000000" d="M 408 121 C 408 111.6111584 436.6537728 104 472 104 C 507.3462272 104 536 111.6111584 536 121 C 536 130.3888416 507.3462272 138 472 138 C 436.6537728 138 408 130.3888416 408 121 Z" stroke-miterlimit="10"/></g><g transform="translate(-38,-54) scale(1,1)"><g><path fill="none" stroke="none"/><text fill="#000000" stroke="none" font-family="Arial" font-size="13px" font-style="normal" font-weight="bold" text-decoration="none" x="431.168701171875" y="126.5">Search Class</text></g></g><g transform="translate(-38,-54) scale(1,1)"><path fill="#C0C0C0" stroke="none" d="M 399 200 C 399 190.6111584 436.8319344 183 483.5 183 C 530.1680656 183 568 190.6111584 568 200 C 568 209.3888416 530.1680656 217 483.5 217 C 436.8319344 217 399 209.3888416 399 200 Z" opacity="0.2"/></g><g transform="translate(-38,-54) scale(1,1)"><path fill="#ffffff" stroke="none" d="M 392 193 C 392 183.6111584 429.8319344 176 476.5 176 C 523.1680656 176 561 183.6111584 561 193 C 561 202.3888416 523.1680656 210 476.5 210 C 429.8319344 210 392 202.3888416 392 193 Z"/></g><g transform="translate(-38,-54) scale(1,1)"><path fill="none" stroke="#000000" d="M 392 193 C 392 183.6111584 429.8319344 176 476.5 176 C 523.1680656 176 561 183.6111584 561 193 C 561 202.3888416 523.1680656 210 476.5 210 C 429.8319344 210 392 202.3888416 392 193 Z" stroke-miterlimit="10"/></g><g transform="translate(-38,-54) scale(1,1)"><g><path fill="none" stroke="none"/><text fill="#000000" stroke="none" font-family="Arial" font-size="13px" font-style="normal" font-weight="bold" text-decoration="none" x="423.14794921875" y="198.5">View Class Detail</text></g></g><g transform="translate(-38,-54) scale(1,1)"><path fill="#C0C0C0" stroke="none" d="M 375 352 C 375 342.6111584 422.2339536 335 480.5 335 C 538.7660464 335 586 342.6111584 586 352 C 586 361.3888416 538.7660464 369 480.5 369 C 422.2339536 369 375 361.3888416 375 352 Z" opacity="0.2"/></g><g transform="translate(-38,-54) scale(1,1)"><path fill="#ffffff" stroke="none" d="M 368 345 C 368 335.6111584 415.2339536 328 473.5 328 C 531.7660464 328 579 335.6111584 579 345 C 579 354.3888416 531.7660464 362 473.5 362 C 415.2339536 362 368 354.3888416 368 345 Z"/></g><g transform="translate(-38,-54) scale(1,1)"><path fill="none" stroke="#000000" d="M 368 345 C 368 335.6111584 415.2339536 328 473.5 328 C 531.7660464 328 579 335.6111584 579 345 C 579 354.3888416 531.7660464 362 473.5 362 C 415.2339536 362 368 354.3888416 368 345 Z" stroke-miterlimit="10"/></g><g transform="translate(-38,-54) scale(1,1)"><g><path fill="none" stroke="none"/><text fill="#000000" stroke="none" font-family="Arial" font-size="13px" font-style="normal" font-weight="bold" text-decoration="none" x="405.224609375" y="350.5">Use Schedule Planner</text></g></g><g transform="translate(-38,-54) scale(1,1)"><path fill="#C0C0C0" stroke="none" d="M 391 280 C 391 270.6111584 431.9659408 263 482.5 263 C 533.0340592 263 574 270.6111584 574 280 C 574 289.3888416 533.0340592 297 482.5 297 C 431.9659408 297 391 289.3888416 391 280 Z" opacity="0.2"/></g><g transform="translate(-38,-54) scale(1,1)"><path fill="#ffffff" stroke="none" d="M 384 273 C 384 263.6111584 424.9659408 256 475.5 256 C 526.0340592 256 567 263.6111584 567 273 C 567 282.3888416 526.0340592 290 475.5 290 C 424.9659408 290 384 282.3888416 384 273 Z"/></g><g transform="translate(-38,-54) scale(1,1)"><path fill="none" stroke="#000000" d="M 384 273 C 384 263.6111584 424.9659408 256 475.5 256 C 526.0340592 256 567 263.6111584 567 273 C 567 282.3888416 526.0340592 290 475.5 290 C 424.9659408 290 384 282.3888416 384 273 Z" stroke-miterlimit="10"/></g><g transform="translate(-38,-54) scale(1,1)"><g><path fill="none" stroke="none"/><text fill="#000000" stroke="none" font-family="Arial" font-size="13px" font-style="normal" font-weight="bold" text-decoration="none" x="416.619140625" y="278.5">Add Remove Class</text></g></g><g transform="translate(-38,-54) scale(1,1)"><path fill="#C0C0C0" stroke="none" d="M 383 496 C 383 486.6111584 428.2192352 479 484 479 C 539.7807648 479 585 486.6111584 585 496 C 585 505.3888416 539.7807648 513 484 513 C 428.2192352 513 383 505.3888416 383 496 Z" opacity="0.2"/></g><g transform="translate(-38,-54) scale(1,1)"><path fill="#ffffff" stroke="none" d="M 376 489 C 376 479.6111584 421.2192352 472 477 472 C 532.7807648 472 578 479.6111584 578 489 C 578 498.3888416 532.7807648 506 477 506 C 421.2192352 506 376 498.3888416 376 489 Z"/></g><g transform="translate(-38,-54) scale(1,1)"><path fill="none" stroke="#000000" d="M 376 489 C 376 479.6111584 421.2192352 472 477 472 C 532.7807648 472 578 479.6111584 578 489 C 578 498.3888416 532.7807648 506 477 506 C 421.2192352 506 376 498.3888416 376 489 Z" stroke-miterlimit="10"/></g><g transform="translate(-38,-54) scale(1,1)"><g><path fill="none" stroke="none"/><text fill="#000000" stroke="none" font-family="Arial" font-size="13px" font-style="normal" font-weight="bold" text-decoration="none" x="411.98095703125" y="494.5">Use Freshman Guide</text></g></g><g transform="translate(-38,-54) scale(1,1)"><path fill="#C0C0C0" stroke="none" d="M 367 432 C 367 422.6111584 418.7111056 415 482.5 415 C 546.2888944 415 598 422.6111584 598 432 C 598 441.3888416 546.2888944 449 482.5 449 C 418.7111056 449 367 441.3888416 367 432 Z" opacity="0.2"/></g><g transform="translate(-38,-54) scale(1,1)"><path fill="#ffffff" stroke="none" d="M 360 425 C 360 415.6111584 411.7111056 408 475.5 408 C 539.2888944 408 591 415.6111584 591 425 C 591 434.3888416 539.2888944 442 475.5 442 C 411.7111056 442 360 434.3888416 360 425 Z"/></g><g transform="translate(-38,-54) scale(1,1)"><path fill="none" stroke="#000000" d="M 360 425 C 360 415.6111584 411.7111056 408 475.5 408 C 539.2888944 408 591 415.6111584 591 425 C 591 434.3888416 539.2888944 442 475.5 442 C 411.7111056 442 360 434.3888416 360 425 Z" stroke-miterlimit="10"/></g><g transform="translate(-38,-54) scale(1,1)"><g><path fill="none" stroke="none"/><text fill="#000000" stroke="none" font-family="Arial" font-size="13px" font-style="normal" font-weight="bold" text-decoration="none" x="400.369140625" y="430.5">Export Schedule as PDF</text></g></g><g transform="translate(-38,-54) scale(1,1)"><path fill="none" stroke="#000000" d="M 197 327 L 448 139" stroke-miterlimit="10"/></g><g transform="translate(-38,-54) scale(1,1)"><path fill="none" stroke="#000000" d="M 138 566 L 398 507" stroke-miterlimit="10"/></g><g transform="translate(-38,-54) scale(1,1)"><path fill="none" stroke="#000000" d="M 475 175 L 473 139" stroke-miterlimit="10" stroke-dasharray="3"/></g><g transform="translate(-38,-54) scale(1,1)"><path fill="none" stroke="#000000" d="M 477.7667603592659 148.9135258953276 L 473 139 L 469.3606871882736 149.38052996038275" stroke-miterlimit="10"/></g><g transform="translate(-38,-54) scale(1,1)"><g><path fill="none" stroke="none"/><text fill="#000000" stroke="none" font-family="Arial" font-size="13px" font-style="normal" font-weight="normal" text-decoration="none" x="417.178955078125" y="163">«extend»</text></g></g><g transform="translate(-38,-54) scale(1,1)"><path fill="none" stroke="#000000" d="M 475 255 L 476 211" stroke-miterlimit="10" stroke-dasharray="3"/></g><g transform="translate(-38,-54) scale(1,1)"><path fill="none" stroke="#000000" d="M 479.9775207532446 221.25569737548395 L 476 211 L 471.56065873692773 221.0644050569313" stroke-miterlimit="10"/></g><g transform="translate(-38,-54) scale(1,1)"><g><path fill="none" stroke="none"/><text fill="#000000" stroke="none" font-family="Arial" font-size="13px" font-style="normal" font-weight="normal" text-decoration="none" x="418.178955078125" y="236">«extend»</text></g></g><g transform="translate(-38,-54) scale(1,1)"><path fill="none" stroke="#000000" d="M 474 327 L 475 291" stroke-miterlimit="10" stroke-dasharray="3"/></g><g transform="translate(-38,-54) scale(1,1)"><path fill="none" stroke="#000000" d="M 478.9257069767938 301.27564230266665 L 475 291 L 470.50991767097923 301.0418703775052" stroke-miterlimit="10"/></g><g transform="translate(-38,-54) scale(1,1)"><g><path fill="none" stroke="none"/><text fill="#000000" stroke="none" font-family="Arial" font-size="13px" font-style="normal" font-weight="normal" text-decoration="none" x="417.178955078125" y="312">«extend»</text></g></g><g transform="translate(-38,-54) scale(1,1)"><path fill="none" stroke="#000000" d="M 475 407 L 473 363" stroke-miterlimit="10" stroke-dasharray="3"/></g><g transform="translate(-38,-54) scale(1,1)"><path fill="none" stroke="#000000" d="M 477.66663910167813 372.9610481122565 L 473 363 L 469.25628748624484 373.3433368220489" stroke-miterlimit="10"/></g><g transform="translate(-38,-54) scale(1,1)"><g><path fill="none" stroke="none"/><text fill="#000000" stroke="none" font-family="Arial" font-size="13px" font-style="normal" font-weight="normal" text-decoration="none" x="417.178955078125" y="391">«extend»</text></g></g><g transform="translate(-38,-54) scale(1,1)"><path fill="#ffffff" stroke="none" d="M 779.6161374289773 545.6800000000001 C 779.6161374289773 540.8861679360001 783.5019797539227 537 788.29541015625 537 C 793.0888405585773 537 796.9746828835227 540.8861679360001 796.9746828835227 545.6800000000001 C 796.9746828835227 550.473832064 793.0888405585773 554.36 788.29541015625 554.36 C 783.5019797539227 554.36 779.6161374289773 550.473832064 779.6161374289773 545.6800000000001 Z"/></g><g transform="translate(-38,-54) scale(1,1)"><path fill="none" stroke="#000000" d="M 779.6161374289773 545.6800000000001 C 779.6161374289773 540.8861679360001 783.5019797539227 537 788.29541015625 537 C 793.0888405585773 537 796.9746828835227 540.8861679360001 796.9746828835227 545.6800000000001 C 796.9746828835227 550.473832064 793.0888405585773 554.36 788.29541015625 554.36 C 783.5019797539227 554.36 779.6161374289773 550.473832064 779.6161374289773 545.6800000000001 Z" stroke-miterlimit="10"/></g><g transform="translate(-38,-54) scale(1,1)"><path fill="none" stroke="#000000" d="M 788.29541015625 554.36 L 788.29541015625 571.64" stroke-miterlimit="10"/></g><g transform="translate(-38,-54) scale(1,1)"><path fill="none" stroke="#000000" d="M 779.1055919744318 560.84 L 797.4852283380682 560.84" stroke-miterlimit="10"/></g><g transform="translate(-38,-54) scale(1,1)"><path fill="none" stroke="#000000" d="M 788.29541015625 571.64 L 775.5317737926136 589" stroke-miterlimit="10"/></g><g transform="translate(-38,-54) scale(1,1)"><path fill="none" stroke="#000000" d="M 788.29541015625 571.64 L 801.0590465198864 589" stroke-miterlimit="10"/></g><g transform="translate(-38,-54) scale(1,1)"><g><path fill="none" stroke="none"/><text fill="#000000" stroke="none" font-family="Arial" font-size="13px" font-style="normal" font-weight="bold" text-decoration="none" x="758.801025390625" y="608">Volunteer</text></g></g><g transform="translate(-38,-54) scale(1,1)"><path fill="#C0C0C0" stroke="none" d="M 415 560 C 415 550.6111584 444.101488 543 480 543 C 515.898512 543 545 550.6111584 545 560 C 545 569.3888416 515.898512 577 480 577 C 444.101488 577 415 569.3888416 415 560 Z" opacity="0.2"/></g><g transform="translate(-38,-54) scale(1,1)"><path fill="#ffffff" stroke="none" d="M 408 553 C 408 543.6111584 437.101488 536 473 536 C 508.898512 536 538 543.6111584 538 553 C 538 562.3888416 508.898512 570 473 570 C 437.101488 570 408 562.3888416 408 553 Z"/></g><g transform="translate(-38,-54) scale(1,1)"><path fill="none" stroke="#000000" d="M 408 553 C 408 543.6111584 437.101488 536 473 536 C 508.898512 536 538 543.6111584 538 553 C 538 562.3888416 508.898512 570 473 570 C 437.101488 570 408 562.3888416 408 553 Z" stroke-miterlimit="10"/></g><g transform="translate(-38,-54) scale(1,1)"><g><path fill="none" stroke="none"/><text fill="#000000" stroke="none" font-family="Arial" font-size="13px" font-style="normal" font-weight="bold" text-decoration="none" x="435.45361328125" y="558.5">Add Method</text></g></g><g transform="translate(-38,-54) scale(1,1)"><path fill="none" stroke="#000000" d="M 751 572 L 539 558" stroke-miterlimit="10"/></g></g></svg>